<?xml version="1.0" standalone="no"?>
<!DOCTYPE svg PUBLIC "-//W3C//DTD SVG 20010904//EN"
 "http://www.w3.org/TR/2001/REC-SVG-20010904/DTD/svg10.dtd">
<svg version="1.0" xmlns="http://www.w3.org/2000/svg"
 width="1200.000000pt" height="1200.000000pt" viewBox="0 0 1200.000000 1200.000000"
 preserveAspectRatio="xMidYMid meet">
<metadata>
Created by potrace 1.11, written by Peter Selinger 2001-2013
</metadata>
<g transform="translate(0.000000,1200.000000) scale(0.100000,-0.100000)"
fill="#000000" stroke="none">
<path d="M8156 9737 c-111 -12 -189 -58 -254 -148 -69 -96 -64 103 -64 -2665
-1 -1990 2 -2512 12 -2555 17 -72 80 -160 144 -203 49 -32 66 -40 118 -53 13
-3 354 -6 758 -8 819 -2 815 -2 909 63 64 44 123 129 141 202 9 39 12 633 12
2563 -1 2452 -1 2513 -20 2569 -44 130 -158 222 -292 235 -97 9 -1384 9 -1464
0z"/>
<path d="M5227 8333 c-32 -7 -80 -24 -105 -39 -51 -30 -122 -100 -122 -121 0
-7 -4 -13 -10 -13 -5 0 -10 -9 -10 -19 0 -11 -4 -22 -9 -25 -5 -4 -12 -25 -16
-48 -6 -32 -10 -2234 -6 -2515 1 -42 2 -42 26 -31 14 6 25 15 25 20 0 4 5 8
11 8 6 0 25 11 42 24 38 28 279 146 299 146 8 0 18 3 22 8 4 4 11 7 14 8 4 0
14 3 22 7 22 9 163 45 196 51 16 3 45 8 64 11 71 13 86 16 130 21 62 7 409 7
440 -1 14 -3 52 -10 85 -15 104 -17 149 -28 238 -59 154 -53 311 -129 419
-202 31 -22 59 -39 62 -39 4 0 6 571 6 1270 l0 1269 -21 58 c-21 57 -64 121
-104 155 -29 26 -114 66 -155 73 -19 4 -361 7 -759 8 -532 2 -740 -1 -784 -10z"/>
<path d="M2507 6954 c-1 -1 -43 -4 -93 -6 -72 -4 -102 -10 -145 -32 -67 -33
-85 -48 -132 -110 -73 -96 -69 -31 -69 -1277 0 -873 2 -1128 12 -1167 29 -113
140 -218 256 -245 83 -19 1506 -17 1573 2 124 36 228 154 247 281 8 56 8 2213
0 2255 -29 149 -128 256 -265 286 -33 7 -281 11 -717 12 -366 1 -666 1 -667 1z"/>
<path d="M5917 5324 c-1 -1 -24 -5 -52 -8 -27 -4 -68 -10 -90 -15 -22 -5 -65
-14 -95 -21 -71 -15 -129 -35 -210 -73 -61 -28 -199 -105 -210 -117 -3 -3 -30
-24 -60 -47 -87 -66 -195 -181 -258 -273 -121 -179 -183 -332 -222 -554 -13
-78 -13 -333 0 -341 6 -4 8 -10 5 -15 -3 -5 2 -44 10 -87 58 -282 210 -542
420 -718 33 -27 62 -52 65 -55 19 -19 137 -94 195 -124 81 -41 249 -99 350
-119 88 -18 314 -20 418 -3 42 7 77 11 77 8 0 -2 6 0 13 5 6 6 37 16 67 23 30
7 106 35 169 61 81 34 119 45 130 39 9 -5 141 -135 294 -288 331 -334 336
-337 491 -337 82 1 110 5 148 22 81 37 164 133 185 216 15 58 11 162 -8 211
-11 28 -21 55 -22 60 -5 21 -45 64 -320 338 l-287 288 28 57 c58 117 114 284
125 373 1 14 5 30 8 35 10 16 9 265 -1 320 -5 28 -11 66 -14 85 -3 19 -10 52
-16 73 -5 20 -14 52 -19 70 -15 54 -41 119 -52 134 -6 7 -9 13 -6 13 3 0 -15
37 -40 83 -138 251 -334 436 -588 556 -114 54 -144 64 -245 86 -41 8 -86 18
-100 21 -49 10 -275 25 -283 18z m108 -684 c0 -1 21 -3 46 -5 276 -22 497
-243 535 -535 24 -183 -45 -383 -175 -507 -223 -214 -565 -235 -806 -50 -102
78 -186 208 -219 337 -25 97 -14 325 17 356 4 4 7 14 7 21 0 22 75 143 117
189 92 99 246 178 369 189 31 2 58 6 60 8 4 3 49 1 49 -3z"/>
</g>
</svg>
