<?xml version="1.0" encoding="utf-8"?>
<svg height="100px" width="100px" version="1.1" x="0px" y="0px" viewBox="0 0 100 100" style="enable-background:new 0 0 100 100;" fill="#2d96bd" xmlns="http://www.w3.org/2000/svg">
  <g>
    <g>
      <g>
        <path d="M62.7,56V25.9c0-2.3-1.9-4.2-4.2-4.2H41.5c-2.3,0-4.2,1.9-4.2,4.2V56c3.6-2.6,8-4,12.7-4C54.7,51.9,59.1,53.4,62.7,56z"/>
        <path d="M23.6,38.5H6.7c-2.3,0-4.2,1.9-4.2,4.2v26c0,2.3,1.9,4.2,4.2,4.2h16.9c2.3,0,4.2-1.9,4.2-4.2v-26     C27.8,40.4,25.9,38.5,23.6,38.5z"/>
        <path d="M93.3,4.8H76.4c-2.3,0-4.2,1.9-4.2,4.2v59.7c0,2.3,1.9,4.2,4.2,4.2h16.9c2.3,0,4.2-1.9,4.2-4.2V9     C97.5,6.7,95.6,4.8,93.3,4.8z"/>
        <path d="M63.5,81.4c1.3-2.3,2.1-4.8,2.1-7.6c0-8.6-7-15.6-15.6-15.6c-8.6,0-15.6,7-15.6,15.6c0,8.6,7,15.6,15.6,15.6     c2.8,0,5.3-0.8,7.6-2l6.6,6.6c0.8,0.8,1.9,1.2,3,1.2s2.2-0.4,3-1.2c1.6-1.6,1.6-4.3,0-6L63.5,81.4z M42.6,73.8     c0-4.1,3.3-7.4,7.4-7.4c4.1,0,7.4,3.3,7.4,7.4c0,4.1-3.3,7.4-7.4,7.4C45.9,81.2,42.6,77.9,42.6,73.8z"/>
      </g>
    </g>
  </g>
</svg>